name C:\Users\u0101727\Documents\MyRepositories\upper-imu-dc\Results\main_tracking\Case_10\FLX01_angularVelocities_bodyFrame.mot
datacolumns 4
datarows 47
range 2.01000000 2.47000000
endheader 
time	radius_imu_x	radius_imu_y	radius_imu_z	
          2.01000000	         -0.83596229	          0.04427953	         -0.85939814	
          2.02000000	         -0.84902256	          0.21870795	         -0.85442518	
          2.03000000	         -0.86329641	          0.42567070	         -0.85018829	
          2.04000000	         -0.87560490	          0.63036962	         -0.84580008	
          2.05000000	         -0.88343273	          0.79963213	         -0.84027216	
          2.06000000	         -0.88556975	          0.91070481	         -0.83284649	
          2.07000000	         -0.88229868	          0.95616226	         -0.82321831	
          2.08000000	         -0.87503217	          0.94260018	         -0.81155305	
          2.09000000	         -0.86553980	          0.88368874	         -0.79829487	
          2.10000000	         -0.85512404	          0.79135999	         -0.78387483	
          2.11000000	         -0.84423169	          0.67101899	         -0.76851741	
          2.12000000	         -0.83277741	          0.52456669	         -0.75230747	
          2.13000000	         -0.82092336	          0.35873585	         -0.73548622	
          2.14000000	         -0.80972463	          0.19198443	         -0.71877595	
          2.15000000	         -0.80121733	          0.05494557	         -0.70353682	
          2.16000000	         -0.79788305	         -0.01630851	         -0.69165278	
          2.17000000	         -0.80168102	          0.00810898	         -0.68513655	
          2.18000000	         -0.81304584	          0.13989903	         -0.68556544	
          2.19000000	         -0.83038898	          0.36615745	         -0.69359281	
          2.20000000	         -0.85044883	          0.65240927	         -0.70877926	
          2.21000000	         -0.86928718	          0.95309439	         -0.72978516	
          2.22000000	         -0.88334928	          1.22338578	         -0.75475414	
          2.23000000	         -0.89013125	          1.42748784	         -0.78168416	
          2.24000000	         -0.88836223	          1.54220945	         -0.80868275	
          2.25000000	         -0.87785736	          1.55696518	         -0.83410445	
          2.26000000	         -0.85924911	          1.47188214	         -0.85661426	
          2.27000000	         -0.83373016	          1.29528306	         -0.87521556	
          2.28000000	         -0.80284665	          1.04126589	         -0.88925740	
          2.29000000	         -0.76833739	          0.72773764	         -0.89842399	
          2.30000000	         -0.73202597	          0.37516324	         -0.90271722	
          2.31000000	         -0.69578710	          0.00625284	         -0.90245137	
          2.32000000	         -0.66157796	         -0.35353165	         -0.89826809	
          2.33000000	         -0.63146468	         -0.67536520	         -0.89115277	
          2.34000000	         -0.60753449	         -0.92753006	         -0.88241186	
          2.35000000	         -0.59160735	         -1.07818133	         -0.87356973	
          2.36000000	         -0.58475408	         -1.10098458	         -0.86616455	
          2.37000000	         -0.58674977	         -0.98288913	         -0.86145285	
          2.38000000	         -0.59570746	         -0.73138196	         -0.86008244	
          2.39000000	         -0.60819569	         -0.37690001	         -0.86186894	
          2.40000000	         -0.61996600	          0.03260309	         -0.86582066	
          2.41000000	         -0.62700425	          0.44299949	         -0.87042015	
          2.42000000	         -0.62640431	          0.80571096	         -0.87401559	
          2.43000000	         -0.61677713	          1.08562483	         -0.87516224	
          2.44000000	         -0.59822985	          1.26427713	         -0.87283729	
          2.45000000	         -0.57208228	          1.33913822	         -0.86652233	
          2.46000000	         -0.54047740	          1.32032829	         -0.85618726	
          2.47000000	         -0.50599907	          1.22627834	         -0.84222469	
